inDegrees=yes
name=ik_S42_A13_T02
DataType=double
version=3
OpenSimVersion=4.3-2021-08-27-4bc7ad9
endheader
time	pelvis_tilt	pelvis_list	pelvis_rotation	pelvis_tx	pelvis_ty	pelvis_tz	hip_flexion_r	hip_adduction_r	hip_rotation_r	knee_angle_r	knee_angle_r_beta	ankle_angle_r	subtalar_angle_r	mtp_angle_r	hip_flexion_l	hip_adduction_l	hip_rotation_l	knee_angle_l	knee_angle_l_beta	ankle_angle_l	subtalar_angle_l	mtp_angle_l	lumbar_extension	lumbar_bending	lumbar_rotation	arm_flex_r	arm_add_r	arm_rot_r	elbow_flex_r	pro_sup_r	wrist_flex_r	wrist_dev_r	arm_flex_l	arm_add_l	arm_rot_l	elbow_flex_l	pro_sup_l	wrist_flex_l	wrist_dev_l
0	0	0	0	0	0.9399999999999999	0	0	0	0	0	0	0	0	0	0	0	0	0	0	0	0	0	0	0	0	0	0	0	0	89.99999999963507	0	0	0	0	0	0	89.99999999869995	0	0
0.02	-0.3344537485897877	-0.01896822164186971	18.04847457773821	0	0.9399999999999999	0	3.347151416905672	-1.543946724359789	-1.122325688791722	5.041010330662464	0.08798222789710805	0	0	0	3.347151416905672	-1.543946724359789	-1.122325688791722	5.041010330662464	0.08798222789710805	0	0	0	-0.001907432435883633	0.3590941698566597	4.038175966684253	16.17451613437	-1.146419965717908	14.56939834169163	7.16944693352352	147.6013115343096	0	0	14.3195322955021	4.422901298857137	15.75462076560108	-0.5159474547468672	138.9598102780641	0	0
0.04	-0.32941287185185	-0.02139533323869557	18.08283058397128	0	0.9399999999999999	0	3.351356176474436	-1.546085154516132	-1.123760320445423	5.046690311897632	0.08808136227111324	0	0	0	3.351356176474436	-1.546085154516132	-1.123760320445423	5.046690311897632	0.08808136227111324	0	0	0	0.00211652465882142	0.3552113355794002	4.035403537833034	16.22161303923732	-1.196268328680023	14.67596399350694	7.196253894543785	147.5995196719656	0	0	14.29082447572393	4.432535627386076	15.80410262826589	-0.5184660697781742	138.9889902367554	0	0
0.06	-0.3232185064363438	-0.001126075728431859	18.11876452750355	0	0.9399999999999999	0	3.365261124144955	-1.553242267983127	-1.12851816682512	5.06544463080947	0.08840868688509385	0	0	0	3.365261124144955	-1.553242267983127	-1.12851816682512	5.06544463080947	0.08840868688509385	0	0	0	0.0142503040054752	0.3725128220894397	4.000351269256604	16.19124443624001	-1.264083206623368	15.03701499273377	7.325454174201736	147.3774113256568	0	0	14.26825484382288	4.469461533271087	15.77597566203593	-0.5337237000541911	138.9994383206106	0	0
0.08	-0.3337688675336136	-2.615427884092062e-05	18.16906070352082	0	0.9399999999999999	0	3.388137959611162	-1.565013276438124	-1.136346577101301	5.09626716039637	0.08894664151017863	0	0	0	3.388137959611162	-1.565013276438124	-1.136346577101301	5.09626716039637	0.08894664151017863	0	0	0	0.004470629662293444	0.3767587624234375	3.955836575989303	16.17050170746121	-1.239225381193987	15.42187401193956	7.509041930936857	146.7391179582067	0	0	14.26449819226858	4.498577150956174	15.79698046086108	-0.5406677371710501	138.902132513262	0	0
0.1	-0.3352460427254212	0.009373967240998133	18.20169835714541	0	0.9399999999999999	0	3.41294750243441	-1.577789442124687	-1.14483991991183	5.129641335451152	0.08952913075002152	0	0	0	3.41294750243441	-1.577789442124687	-1.14483991991183	5.129641335451152	0.08952913075002152	0	0	0	0.005903939903003663	0.3860757078359123	3.941617585029681	16.1184260998054	-1.249318950106586	15.62648737829875	7.649725721534473	146.4823051739952	0	0	14.26726397733018	4.537132848223805	15.80305518666502	-0.5327199254202506	138.8737997652082	0	0
0.12	-0.3355826065984295	0.008925542491913185	18.22575985588716	0	0.9399999999999999	0	3.596619465727326	-1.659677319365618	-1.210633289291466	5.293453376583897	0.09238819022220031	0	0	0	3.596619465727326	-1.659677319365618	-1.210633289291466	5.293453376583897	0.09238819022220031	0	0	0	0.004166734141152194	0.3856390858059449	3.925775167031111	16.12336721216147	-1.264049160016475	15.61931421692283	7.66021128523923	146.5271268340962	0	0	14.28159647629763	4.542665493438028	15.79527174218858	-0.526687382242522	138.9084423465886	0	0
0.14	-0.3317876472684486	0.01035148419902827	18.32095583989672	0	0.9399999999999999	0	4.605200155014673	-2.123237640318281	-1.566393650805757	6.345405615431672	0.1107482203638198	0	0	0	4.605200155014673	-2.123237640318281	-1.566393650805757	6.345405615431672	0.1107482203638198	0	0	0	-0.002358726506026405	0.383790629004202	3.8716772678845	16.12711087331429	-1.273239351530056	15.62490428892221	7.656574164356599	146.5701071296044	0	0	14.31070909467031	4.532428172338896	15.81728723471583	-0.5058919823020247	138.9015288417967	0	0
0.16	-0.334319149936876	0.01109966703585377	18.3605438721772	0	0.9399999999999999	0	4.793899161195996	-2.203206055518293	-1.632748227628638	6.512609552570041	0.1136664795891819	0	0	0	4.793899161195996	-2.203206055518293	-1.632748227628638	6.512609552570041	0.1136664795891819	0	0	0	-0.006254493533366442	0.3847233536823828	3.862345886344296	16.17443674201859	-1.291470539477626	15.59769917445955	7.642158125228261	146.5615290583227	0	0	14.3410955324278	4.520548407093679	15.81394542205134	-0.514436623113409	138.9634522310482	0	0
0.18	-0.3343397919299567	0.02131941328644635	18.42305513504488	0	0.9399999999999999	0	5.589081514795624	-2.531342062099985	-1.908067514045537	7.246648194906126	0.1264778707348157	0	0	0	5.589081514795624	-2.531342062099985	-1.908067514045537	7.246648194906126	0.1264778707348157	0	0	0	-0.001334435805003943	0.3839821904667279	3.838529974485774	16.16840740025064	-1.267532830051727	15.53209754102565	7.597098616996585	146.4828191891951	0	0	14.34365936087374	4.526616217808451	15.78702119975495	-0.5486227023820227	138.9230659829049	0	0
0.2	-0.3323660271139182	0.01788277132733654	18.44622543503818	0	0.9399999999999999	0	5.811220278830507	-2.61969074374929	-1.984076174926948	7.445601642568342	0.1299502634547156	0	0	0	5.811220278830507	-2.61969074374929	-1.984076174926948	7.445601642568342	0.1299502634547156	0	0	0	-0.001614991641749668	0.378626805270916	3.819207932413121	16.16264787160579	-1.235985193277524	15.44571396831171	7.571709234706754	146.6765981673449	0	0	14.33969499462951	4.529177513577552	15.72928729482349	-0.588232442334141	138.9271249669486	0	0
0.22	-0.3289581932553746	0.02955605283235854	18.48320223475814	0	0.9399999999999999	0	6.037031692707115	-2.711879273258664	-2.061094013235352	7.65943037065438	0.1336822787951686	0	0	0	6.037031692707115	-2.711879273258664	-2.061094013235352	7.65943037065438	0.1336822787951686	0	0	0	0.003875186443223431	0.3876549136709597	3.81116651210257	16.18434542646874	-1.216975020799	15.33048133092394	7.493633382514892	146.839434429677	0	0	14.30697853654275	4.571088368660706	15.711284187349	-0.5563362585386309	138.9108738983841	0	0
